PathFileType	4	(X/Y/Z)	TVC_41_BWA_06_walk_RCNL2025.trc
DataRate	CameraRate	NumFrames	NumMarkers	Units	OrigDataRate	OrigDataStartFrame	OrigNumFrames
100	100	9	27	mm	100	759	867
Frame#	Time	R_Shoulder			L_Shoulder			C7			J_Notch			R_Elbow			L_Elbow			R_Wrist			L_Wrist			R_Asis			L_Asis			R_Psis			L_Psis			Sacral			Thoracic			Sternum			R_Thigh_Lateral			R_Knee_Lateral			R_Shank_Lateral			R_Ankle_Lateral			R_Heel			R_Toe			L_Thigh_Lateral			L_Knee_Lateral			L_Shank_Lateral			L_Ankle_Lateral			L_Heel			L_Toe		
		X1	Y1	Z1	X2	Y2	Z2	X3	Y3	Z3	X4	Y4	Z4	X5	Y5	Z5	X6	Y6	Z6	X7	Y7	Z7	X8	Y8	Z8	X9	Y9	Z9	X10	Y10	Z10	X11	Y11	Z11	X12	Y12	Z12	X13	Y13	Z13	X14	Y14	Z14	X15	Y15	Z15	X16	Y16	Z16	X17	Y17	Z17	X18	Y18	Z18	X19	Y19	Z19	X20	Y20	Z20	X21	Y21	Z21	X22	Y22	Z22	X23	Y23	Z23	X24	Y24	Z24	X25	Y25	Z25	X26	Y26	Z26	X27	Y27	Z27
759	7.58000000	-92.388069	1243.413696	411.354858	-95.057678	1257.211304	71.614159	-143.571121	1308.591553	245.125809	-19.536232	1205.652100	245.935532	-189.444473	961.112610	436.336853	-163.363327	966.657776	21.064621	11.002676	901.489044	411.355301	-90.080269	776.999390	-21.737744	-44.667049	875.447937	364.371399	-50.461205	842.629700	126.208084	-216.283112	873.979065	298.424164	-221.626907	858.509460	210.104309	-218.955009	866.244263	254.264236	-183.156540	1013.403137	230.761139	10.327789	1024.978271	230.209183	-59.514011	647.654053	458.995941	-55.112343	417.626648	374.951508	-76.837914	286.456726	440.381165	-64.656273	79.689468	365.857574	-110.460724	54.175983	318.822266	48.138672	45.167641	365.318146	-139.318222	572.750549	46.462624	-143.569916	386.482208	146.279800	-198.292999	257.033020	86.925468	-291.761749	68.002647	155.828445	-341.711060	54.548531	193.114594	-175.884247	37.759193	182.539566
760	7.59000000	-88.887894	1243.203979	413.126068	-91.603951	1257.271606	73.389870	-140.118393	1308.441284	246.962265	-16.053062	1205.539062	247.691666	-185.744843	960.777893	437.749786	-160.198898	966.771179	22.983633	14.630431	901.394928	412.675934	-86.944300	777.005249	-19.555500	-41.979111	875.307617	366.192810	-47.259750	842.252869	127.931435	-213.216324	874.430298	299.913025	-218.523483	858.890137	211.567673	-215.869904	866.660217	255.740349	-179.652039	1013.272522	232.430023	13.851522	1024.883545	231.878769	-58.146339	647.548584	460.940338	-53.981380	417.419373	376.338531	-75.553055	286.380280	441.720734	-64.216049	79.528114	366.943817	-110.936340	54.260082	320.114288	48.258976	45.153873	365.608551	-137.072540	572.783997	47.897274	-141.071060	386.257874	147.145859	-196.426224	257.301666	87.268654	-291.355103	68.731964	155.288864	-341.463715	55.519909	192.322052	-175.752487	37.801407	182.390900
761	7.60000000	-85.397110	1243.022827	414.910980	-88.070717	1257.337280	75.180855	-136.625412	1308.317261	248.798447	-12.544298	1205.430054	249.486176	-182.167343	960.514954	439.152832	-156.958008	966.900391	24.897039	18.023339	901.251740	414.036484	-83.704218	777.028412	-17.330776	-39.331646	875.148132	368.062225	-44.053406	841.902832	129.686234	-210.179306	874.900635	301.416931	-215.434937	859.294067	213.050262	-212.807121	867.097351	257.233597	-176.170563	1013.181458	234.099304	17.374498	1024.788452	233.608017	-56.863285	647.416748	462.827301	-52.963356	417.210144	377.706604	-74.539742	286.262024	442.985504	-63.878883	79.366516	367.943573	-111.438599	54.299019	321.265869	48.285690	45.126328	365.834412	-134.771759	572.883606	49.330635	-138.538849	386.054260	148.020782	-194.522247	257.589935	87.618401	-290.920135	69.519249	154.740311	-341.187958	56.560688	191.502106	-175.609161	37.846916	182.242844
762	7.61000000	-81.917747	1242.868530	416.710724	-84.466911	1257.403076	76.987625	-133.098343	1308.216919	250.634979	-9.014701	1205.322754	251.318649	-178.713150	960.324158	440.558868	-153.646484	967.038452	26.806705	21.251085	901.082397	415.400452	-80.365164	777.064117	-15.067990	-36.723602	874.948608	369.978271	-40.842529	841.580688	131.469177	-207.171021	875.383545	302.936493	-212.360886	859.717041	214.552353	-209.765953	867.550293	258.744423	-172.715393	1013.127014	235.770996	20.893621	1024.691040	235.397308	-55.699234	647.243958	464.653015	-52.058960	416.988861	379.043121	-73.767105	286.091553	444.167511	-63.639267	79.194687	368.841461	-111.948776	54.282951	322.268097	48.233513	45.089809	366.001190	-132.403397	573.043213	50.753963	-135.973618	385.869049	148.900970	-192.585236	257.896454	87.975723	-290.455780	70.359810	154.190521	-340.883606	57.666496	190.673157	-175.454803	37.896614	182.099136
763	7.62000000	-78.451805	1242.738647	418.526550	-80.801483	1257.463989	78.810936	-129.543518	1308.137329	252.472672	-5.469085	1205.214844	253.188690	-175.381058	960.204407	441.980499	-150.270218	967.178284	28.714855	24.376887	900.906769	416.741074	-76.932718	777.107452	-12.771454	-34.157715	874.689148	371.941010	-37.627438	841.286926	133.276978	-204.190948	875.872925	304.470856	-209.300873	860.154602	216.072586	-206.745911	868.013763	260.271721	-169.289230	1013.105713	237.446960	24.405825	1024.589111	237.246719	-54.685432	647.021179	466.422241	-51.260616	416.747955	380.337830	-73.190765	285.863495	445.264282	-63.487953	79.004784	369.628540	-112.453560	54.208122	323.122559	48.119244	45.049290	366.115601	-129.955597	573.252686	52.161144	-133.372742	385.698700	149.782684	-190.618118	258.219025	88.342796	-289.961884	71.248177	153.647964	-340.550690	58.832474	189.854477	-175.289139	37.951698	181.964066
764	7.63000000	-75.001282	1242.630249	420.359772	-77.083214	1257.515137	80.651733	-125.967361	1308.075562	254.312469	-1.912280	1205.103882	255.095810	-172.167618	960.153076	443.429443	-146.834946	967.313232	30.623890	27.445353	900.736389	418.048859	-73.412821	777.153748	-10.445314	-31.639763	874.352234	373.951324	-34.408581	841.021362	135.106491	-201.239197	876.363159	306.017487	-206.254501	860.602600	217.607941	-203.746849	868.482880	261.812714	-165.894226	1013.113831	239.128738	27.908049	1024.480103	239.155792	-53.843231	646.744263	468.145294	-50.554886	416.482086	381.582642	-72.761665	285.576691	446.277557	-63.413456	78.791100	370.301239	-112.944420	54.075424	323.838531	47.960052	45.009476	366.184723	-127.418472	573.498901	53.549145	-130.730103	385.538452	150.661972	-188.621872	258.554810	88.722099	-289.439545	72.178955	153.121262	-340.189209	60.053886	189.064133	-175.111176	38.013226	181.841858
765	7.64000000	-71.568192	1242.540283	422.211792	-73.320595	1257.552246	82.511024	-122.376312	1308.028442	256.155365	1.650903	1204.987305	257.039429	-169.067535	960.166138	444.915985	-143.346191	967.437073	32.536190	30.476408	900.572632	419.334625	-69.811712	777.198425	-8.093525	-29.177446	873.923767	376.010284	-31.186714	840.783081	136.954605	-198.316620	876.849182	307.572449	-203.221527	861.056580	219.153870	-200.769073	868.952881	263.363159	-162.532120	1013.147339	240.817551	31.397221	1024.361938	241.123596	-53.178677	646.412598	469.834229	-49.924961	416.187897	382.771637	-72.433167	285.233582	447.211456	-63.403316	78.549873	370.860565	-113.416306	53.888706	324.429626	47.772118	44.974426	366.215637	-124.785629	573.766724	54.917995	-128.035797	385.382416	151.534393	-186.595032	258.901001	89.115364	-288.890594	73.147789	152.617950	-339.799225	61.326878	188.317139	-174.919128	38.081772	181.735870
766	7.65000000	-68.154594	1242.464722	424.083771	-69.521759	1257.571289	84.389809	-118.776764	1307.992554	258.002319	5.215708	1204.862427	259.018799	-166.073975	960.238281	446.448639	-139.809235	967.544250	34.453918	33.465346	900.407013	420.628540	-66.135836	777.237122	-5.719829	-26.779087	873.394165	378.118103	-27.963032	840.570312	138.818390	-195.424683	877.326477	309.130524	-200.201965	861.512329	220.704559	-197.813324	869.419403	264.917542	-159.204315	1013.201965	242.514084	34.870235	1024.231812	243.148560	-52.679585	646.027588	471.499451	-49.352867	415.863647	383.900787	-72.165482	284.839722	448.070801	-63.445084	78.278831	371.311279	-113.866203	53.653046	324.911713	47.569580	44.947231	366.214813	-122.055389	574.040344	56.270493	-125.275780	385.223785	152.394852	-184.533081	259.255341	89.522644	-288.316925	74.152260	152.143143	-339.380646	62.649227	187.623596	-174.710464	38.157211	181.648056
767	7.66000000	-64.762657	1242.399536	425.976715	-65.694336	1257.569092	86.289001	-115.175018	1307.964844	259.854126	8.777465	1204.726807	261.032867	-163.178986	960.362671	448.033813	-136.229004	967.629883	36.378868	36.387751	900.224091	421.975388	-62.391783	777.265930	-3.327770	-24.452295	872.758972	380.273376	-24.739286	840.380798	140.694977	-192.565506	877.791321	310.685547	-197.196182	861.965759	222.253204	-194.880844	869.878540	266.469376	-155.911957	1013.273499	244.218552	38.323936	1024.087402	245.228485	-52.315823	645.591675	473.147156	-48.821194	415.508850	384.967712	-71.927521	284.403229	448.859802	-63.527092	77.977013	371.660950	-114.291595	53.373455	325.300629	47.363903	44.929802	366.188354	-119.231369	574.304871	57.611565	-122.431831	385.055023	153.237305	-182.427948	259.616669	89.941696	-287.719360	75.192436	151.698380	-338.932709	64.021072	186.987396	-174.482086	38.238525	181.578506
